<svg viewBox="0 0 220 64" fill="currentColor" xmlns="http://www.w3.org/2000/svg">
  <!-- Mark -->
  <g transform="rotate(0, 32, 32)">
    <path d="M29 23 L27.5 9 A4.5 4.5 0 0 1 36.5 9 L35 23 A3 3 0 0 1 29 23Z"
          transform="rotate(15, 32, 16)" />
  </g>
  <g transform="rotate(120, 32, 32)">
    <path d="M29 23 L27.5 9 A4.5 4.5 0 0 1 36.5 9 L35 23 A3 3 0 0 1 29 23Z"
          transform="rotate(15, 32, 16)" />
  </g>
  <g transform="rotate(240, 32, 32)">
    <path d="M29 23 L27.5 9 A4.5 4.5 0 0 1 36.5 9 L35 23 A3 3 0 0 1 29 23Z"
          transform="rotate(15, 32, 16)" />
  </g>
  <!-- Wordmark -->
  <text x="72" y="40" font-family="Inter, -apple-system, sans-serif" font-weight="700" font-size="24" letter-spacing="-0.02em">Gather</text>
  <text x="168" y="40" font-family="'Space Grotesk', monospace" font-weight="700" font-size="24">3</text>
</svg>
