<svg viewBox="0 0 64 64" xmlns="http://www.w3.org/2000/svg">
  <rect width="64" height="64" rx="14" fill="#0e0e1c" />
  <g fill="white">
    <g transform="rotate(0, 32, 32)">
      <path d="M29 23 L27.5 9 A4.5 4.5 0 0 1 36.5 9 L35 23 A3 3 0 0 1 29 23Z"
            transform="rotate(15, 32, 16)" />
    </g>
    <g transform="rotate(120, 32, 32)">
      <path d="M29 23 L27.5 9 A4.5 4.5 0 0 1 36.5 9 L35 23 A3 3 0 0 1 29 23Z"
            transform="rotate(15, 32, 16)" />
    </g>
    <g transform="rotate(240, 32, 32)">
      <path d="M29 23 L27.5 9 A4.5 4.5 0 0 1 36.5 9 L35 23 A3 3 0 0 1 29 23Z"
            transform="rotate(15, 32, 16)" />
    </g>
  </g>
</svg>
